<?xml version="1.0"?>
<svg xmlns:rdf="http://www.w3.org/1999/02/22-rdf-syntax-ns#" xmlns="http://www.w3.org/2000/svg" xmlns:cc="http://creativecommons.org/ns#" xmlns:dc="http://purl.org/dc/elements/1.1/" xmlns:svg="http://www.w3.org/2000/svg" id="svg2" space="preserve" viewBox="0 0 256 256" version="1.1" y="0px" x="0px" enable-background="new 0 0 256 256">
  <g id="g11">
    <g id="g13" fill="#facf00">
      <path id="path24965_1_" d="m131.21 65.051c0 9.264-7.591 16.774-16.958 16.774-9.365 0-16.958-7.51-16.958-16.774s7.593-16.774 16.958-16.774c9.367 0 16.958 7.51 16.958 16.774z" rx="46.467018" ry="45.961941" cy="87.809601" cx="87.88327" type="arc"/>
      <path id="path24965-8_1_" d="m158.49 93.622c0 9.265-7.592 16.775-16.959 16.775s-16.957-7.51-16.957-16.775c0-9.264 7.589-16.773 16.957-16.773s16.959 7.509 16.959 16.773z" rx="46.467018" ry="45.961941" cy="87.809601" cx="87.88327" type="arc"/>
      <path id="path24989_1_" d="m157.38 78.876c0 16.492-13.039 29.861-29.123 29.861s-29.124-13.369-29.124-29.861 13.039-29.861 29.124-29.861c16.084 0 29.123 13.369 29.123 29.861z" rx="76.266518" ry="85.357887" cy="132.25632" cx="113.64217" type="arc"/>
    </g>
    <rect id="rect18" transform="matrix(-.0024 -1 1 -.0024 53.685 202.87)" height="8.167" width="23.105" y="70.571" x="116.48" fill="#fff"/>
    <rect id="rect20" transform="matrix(.8759 .4824 -.4824 .8759 58.325 -53.446)" height="8.168" width="16.082" y="82.59" x="125.03" fill="#fff"/>
  </g>
  <g id="g22">
    <g id="g24" fill="#88d54f">
      <path id="path24965_2_" d="m51.605 65.051c0 9.264-7.592 16.774-16.958 16.774-9.365 0-16.958-7.51-16.958-16.774s7.593-16.774 16.958-16.774c9.367 0 16.958 7.51 16.958 16.774z" rx="46.467018" ry="45.961941" cy="87.809601" cx="87.88327" type="arc"/>
      <path id="path24965-8_2_" d="m78.887 93.622c0 9.265-7.592 16.773-16.958 16.773-9.367 0-16.958-7.509-16.958-16.773s7.591-16.773 16.958-16.773c9.366 0 16.958 7.509 16.958 16.773z" rx="46.467018" ry="45.961941" cy="87.809601" cx="87.88327" type="arc"/>
      <path id="path24989_2_" d="m77.78 78.876c0 16.492-13.039 29.861-29.124 29.861-16.084 0-29.123-13.369-29.123-29.861s13.039-29.861 29.123-29.861c16.085 0 29.124 13.369 29.124 29.861z" rx="76.266518" ry="85.357887" cy="132.25632" cx="113.64217" type="arc"/>
    </g>
    <rect id="rect29" transform="matrix(.7054 -.7088 .7088 .7054 -40.605 60.198)" height="8.166" width="38.354" y="74.863" x="32.938" fill="#fff"/>
    <rect id="rect31" transform="matrix(.7088 .7054 -.7054 .7088 72.046 -1.8469)" height="8.167" width="16.081" y="82.257" x="30.22" fill="#fff"/>
  </g>
  <g id="g33">
    <g id="g35" fill="#b8b9b7">
      <path id="path24965_3_" d="m51.605 157.21c0 9.265-7.592 16.774-16.959 16.774-9.365 0-16.957-7.51-16.957-16.774s7.592-16.773 16.957-16.773c9.368 0 16.959 7.509 16.959 16.773z" rx="46.467018" ry="45.961941" cy="87.809601" cx="87.88327" type="arc"/>
      <path id="path24965-8_3_" d="m78.887 185.78c0 9.265-7.592 16.774-16.959 16.774s-16.957-7.51-16.957-16.774 7.59-16.773 16.957-16.773 16.959 7.509 16.959 16.773z" rx="46.467018" ry="45.961941" cy="87.809601" cx="87.88327" type="arc"/>
      <path id="path24989_3_" d="m77.779 171.04c0 16.492-13.039 29.861-29.123 29.861s-29.123-13.369-29.123-29.861c0-16.491 13.039-29.861 29.123-29.861s29.123 13.37 29.123 29.861z" rx="76.266518" ry="85.357887" cy="132.25632" cx="113.64217" type="arc"/>
    </g>
    <rect id="rect40" transform="matrix(.6669 -.7451 .7451 .6669 -110.65 92.704)" height="8.168" width="32.478" y="166.04" x="32.13" fill="#fff"/>
    <rect id="rect42" transform="matrix(.7451 .6669 -.6669 .7451 125.98 11.21)" height="8.169" width="32.478" y="166.34" x="32.082" fill="#fff"/>
  </g>
  <g id="g44">
    <g id="g46" fill="#ff3200">
      <path id="path24965_4_" d="m210.82 157.21c0 9.265-7.592 16.774-16.959 16.774-9.365 0-16.957-7.51-16.957-16.774s7.592-16.773 16.957-16.773c9.368 0 16.959 7.509 16.959 16.773z" rx="46.467018" ry="45.961941" cy="87.809601" cx="87.88327" type="arc"/>
      <path id="path24965-8_4_" d="m238.1 185.78c0 9.265-7.592 16.774-16.959 16.774s-16.957-7.51-16.957-16.774 7.59-16.773 16.957-16.773 16.959 7.509 16.959 16.773z" rx="46.467018" ry="45.961941" cy="87.809601" cx="87.88327" type="arc"/>
      <path id="path24989_4_" d="m236.99 171.04c0 16.492-13.039 29.861-29.123 29.861s-29.123-13.369-29.123-29.861c0-16.491 13.039-29.861 29.123-29.861s29.123 13.37 29.123 29.861z" rx="76.266518" ry="85.357887" cy="132.25632" cx="113.64217" type="arc"/>
    </g>
    <rect id="rect51" transform="matrix(1 -.0024 .0024 1 -.4039 .4919)" height="8.165" width="30.606" y="167.23" x="192.84" fill="#fff"/>
  </g>
  <g id="g56">
    <path id="path24965_5_" d="m210.82 65.051c0 9.265-7.592 16.774-16.959 16.774-9.365 0-16.957-7.51-16.957-16.774s7.592-16.774 16.957-16.774c9.368 0 16.959 7.51 16.959 16.774z" rx="46.467018" ry="45.961941" cy="87.809601" cx="87.88327" type="arc" fill="#88d54f"/>
    <path id="path24989_5_" d="m236.99 78.876c0 16.492-13.039 29.861-29.123 29.861s-29.123-13.369-29.123-29.861 13.039-29.861 29.123-29.861 29.123 13.369 29.123 29.861z" rx="76.266518" ry="85.357887" cy="132.25632" cx="113.64217" type="arc" fill="#88d54f"/>
    <rect id="rect60" transform="matrix(.7054 -.7088 .7088 .7054 6.3004 173.05)" height="8.166" width="38.354" y="74.863" x="192.15" fill="#fff"/>
    <rect id="rect62" transform="matrix(.7088 .7054 -.7054 .7088 118.41 -114.15)" height="8.168" width="16.081" y="82.257" x="189.43" fill="#fff"/>
    <path id="path24965-8_5_" d="m238.1 93.623c0 9.264-7.592 16.773-16.959 16.773s-16.957-7.51-16.957-16.773 7.59-16.773 16.957-16.773 16.959 7.509 16.959 16.773z" rx="46.467018" ry="45.961941" cy="87.809601" cx="87.88327" type="arc" fill="#231f20"/>
    <path id="path5655" fill="#facf00" nodetypes="csszzzc" d="m216.95 83.125c-5.724 2.529-8.314 9.222-5.784 14.945 2.529 5.724 9.225 8.323 14.948 5.793 0.835-0.369 4.466-1.561 2.296-1.368s-7.764-2.773-9.924-7.66c-2.158-4.886-0.586-11.019 1.018-12.494 1.603-1.475-1.719 0.414-2.554 0.784z"/>
  </g>
  <g id="g72">
    <path id="path24965_6_" d="m131.21 157.21c0 9.266-7.592 16.775-16.959 16.775-9.365 0-16.957-7.51-16.957-16.775 0-9.264 7.592-16.773 16.957-16.773 9.367 0 16.959 7.509 16.959 16.773z" rx="46.467018" ry="45.961941" cy="87.809601" cx="87.88327" type="arc" fill="#88d54f"/>
    <path id="path24989_6_" d="m157.38 171.04c0 16.492-13.039 29.861-29.122 29.861-16.084 0-29.123-13.369-29.123-29.861s13.039-29.861 29.123-29.861c16.083 0 29.122 13.369 29.122 29.861z" rx="76.266518" ry="85.357887" cy="132.25632" cx="113.64217" type="arc" fill="#88d54f"/>
    <rect id="rect76" transform="matrix(.7054 -.7088 .7088 .7054 -82.479 143.78)" height="8.166" width="38.354" y="167.02" x="112.54" fill="#fff"/>
    <rect id="rect78" transform="matrix(.7088 .7054 -.7054 .7088 160.24 -31.164)" height="8.168" width="16.081" y="174.42" x="109.82" fill="#fff"/>
    <path id="path24965-8_6_" d="m158.49 185.78c0 9.264-7.592 16.773-16.959 16.773-9.366 0-16.956-7.51-16.956-16.773s7.59-16.773 16.956-16.773c9.367 0 16.959 7.51 16.959 16.773z" rx="46.467018" ry="45.961941" cy="87.809601" cx="87.88327" type="arc" fill="#facf00"/>
    <path id="path2659" opacity=".36" d="m154.67 187.94c-3.016 5.225-6.543 8.99-12.821 8.99-6.101 0-10.566-4.34-13.353-9.168 2.549 3.057 6.282 6.566 13.087 6.566 8.13 0 9.552-2.906 13.087-6.388z" enable-background="new    " nodetypes="czczc" fill="#fff"/>
    <radialGradient id="path8606_1_" gradientUnits="userSpaceOnUse" cy="-284.16" cx="20.562" gradientTransform="matrix(1.25 0 0 -1.25 116.52 -155.87)" r="15.758">
      <stop id="stop83" stop-color="#777" offset="0"/>
      <stop id="stop85" offset="1"/>
    </radialGradient>
    <path id="path8606" fill="url(#path8606_1_)" nodetypes="czczc" d="m154.67 187.23c-3.016 5.225-6.543 8.99-12.821 8.99-6.101 0-10.566-4.34-13.353-9.168 2.549 3.057 6.282 6.566 13.087 6.566 8.13 0 9.552-2.906 13.087-6.388z"/>
    <g id="g8666" transform="translate(.35355 2.3927)">
      <path id="path8610" opacity=".36" d="m138.78 178.54c0 2.5-1.125 4.5-2.5 4.5s-2.625-2-2.625-4.5 1.125-4.5 2.5-4.5 2.5 2 2.5 4.5h0.125z" enable-background="new    " fill="#fff"/>
      <path id="path8612" opacity=".36" d="m148.08 178.54c0 2.5-1.125 4.5-2.5 4.5s-2.5-2-2.5-4.5 1.125-4.5 2.5-4.5 2.5 2 2.5 4.5z" enable-background="new    " fill="#fff"/>
      <path id="path8614" d="m138.78 177.91c0 2.5-1.125 4.5-2.5 4.5s-2.5-2-2.5-4.5 1.125-4.5 2.5-4.5 2.5 2 2.5 4.5z"/>
      <path id="path8616" d="m148.08 177.91c0 2.5-1.125 4.5-2.5 4.5s-2.5-2-2.5-4.5 1.125-4.5 2.5-4.5 2.5 2 2.5 4.5z"/>
    </g>
  </g>
  <metadata>
    <rdf:RDF>
      <cc:Work>
        <dc:format>image/svg+xml</dc:format>
        <dc:type rdf:resource="http://purl.org/dc/dcmitype/StillImage"/>
        <cc:license rdf:resource="http://creativecommons.org/licenses/publicdomain/"/>
        <dc:publisher>
          <cc:Agent rdf:about="http://openclipart.org/">
            <dc:title>Openclipart</dc:title>
          </cc:Agent>
        </dc:publisher>
        <dc:title>Skype status icons</dc:title>
        <dc:date>2012-01-13T10:47:20</dc:date>
        <dc:description>Simple flat Skype status icons. Each icon is unique.</dc:description>
        <dc:source>http://openclipart.org/detail/167025/skype-status-icons-by-dadoprom</dc:source>
        <dc:creator>
          <cc:Agent>
            <dc:title>dadoprom</dc:title>
          </cc:Agent>
        </dc:creator>
        <dc:subject>
          <rdf:Bag>
            <rdf:li>clip art</rdf:li>
            <rdf:li>clipart</rdf:li>
            <rdf:li>icon</rdf:li>
            <rdf:li>skype</rdf:li>
            <rdf:li>status. icons</rdf:li>
          </rdf:Bag>
        </dc:subject>
      </cc:Work>
      <cc:License rdf:about="http://creativecommons.org/licenses/publicdomain/">
        <cc:permits rdf:resource="http://creativecommons.org/ns#Reproduction"/>
        <cc:permits rdf:resource="http://creativecommons.org/ns#Distribution"/>
        <cc:permits rdf:resource="http://creativecommons.org/ns#DerivativeWorks"/>
      </cc:License>
    </rdf:RDF>
  </metadata>
</svg>
